<svg xmlns="http://www.w3.org/2000/svg" xmlns:xlink="http://www.w3.org/1999/xlink" width="2000" zoomAndPan="magnify" viewBox="0 0 1500 1499.999933" height="2000" preserveAspectRatio="xMidYMid meet" version="1.0"><defs><clipPath id="4075ab30ee"><path d="M 675.589844 675.589844 L 824.410156 675.589844 L 824.410156 824.410156 L 675.589844 824.410156 Z M 675.589844 675.589844 " clip-rule="nonzero"/></clipPath><clipPath id="ebca51b88f"><path d="M 750 675.589844 C 708.902344 675.589844 675.589844 708.902344 675.589844 750 C 675.589844 791.09375 708.902344 824.410156 750 824.410156 C 791.09375 824.410156 824.410156 791.09375 824.410156 750 C 824.410156 708.902344 791.09375 675.589844 750 675.589844 Z M 750 675.589844 " clip-rule="nonzero"/></clipPath><clipPath id="613fedf4f1"><path d="M 0.589844 0.589844 L 149.410156 0.589844 L 149.410156 149.410156 L 0.589844 149.410156 Z M 0.589844 0.589844 " clip-rule="nonzero"/></clipPath><clipPath id="fb5d6e12aa"><path d="M 75 0.589844 C 33.902344 0.589844 0.589844 33.902344 0.589844 75 C 0.589844 116.09375 33.902344 149.410156 75 149.410156 C 116.09375 149.410156 149.410156 116.09375 149.410156 75 C 149.410156 33.902344 116.09375 0.589844 75 0.589844 Z M 75 0.589844 " clip-rule="nonzero"/></clipPath><clipPath id="7514070bc5"><rect x="0" width="150" y="0" height="150"/></clipPath><clipPath id="f295c5ea14"><path d="M 673.8125 157.265625 L 822.632812 157.265625 L 822.632812 306.085938 L 673.8125 306.085938 Z M 673.8125 157.265625 " clip-rule="nonzero"/></clipPath><clipPath id="64521d593f"><path d="M 748.222656 157.265625 C 707.128906 157.265625 673.8125 190.578125 673.8125 231.675781 C 673.8125 272.769531 707.128906 306.085938 748.222656 306.085938 C 789.320312 306.085938 822.632812 272.769531 822.632812 231.675781 C 822.632812 190.578125 789.320312 157.265625 748.222656 157.265625 Z M 748.222656 157.265625 " clip-rule="nonzero"/></clipPath><clipPath id="4a2cdc76e1"><path d="M 0.8125 0.265625 L 149.632812 0.265625 L 149.632812 149.085938 L 0.8125 149.085938 Z M 0.8125 0.265625 " clip-rule="nonzero"/></clipPath><clipPath id="14ad5652d1"><path d="M 75.222656 0.265625 C 34.128906 0.265625 0.8125 33.578125 0.8125 74.675781 C 0.8125 115.769531 34.128906 149.085938 75.222656 149.085938 C 116.320312 149.085938 149.632812 115.769531 149.632812 74.675781 C 149.632812 33.578125 116.320312 0.265625 75.222656 0.265625 Z M 75.222656 0.265625 " clip-rule="nonzero"/></clipPath><clipPath id="a8977f0d0d"><rect x="0" width="150" y="0" height="150"/></clipPath><clipPath id="389476dc1f"><path d="M 673.8125 1173.707031 L 822.632812 1173.707031 L 822.632812 1322.527344 L 673.8125 1322.527344 Z M 673.8125 1173.707031 " clip-rule="nonzero"/></clipPath><clipPath id="4f0596e01c"><path d="M 748.222656 1173.707031 C 707.128906 1173.707031 673.8125 1207.023438 673.8125 1248.117188 C 673.8125 1289.214844 707.128906 1322.527344 748.222656 1322.527344 C 789.320312 1322.527344 822.632812 1289.214844 822.632812 1248.117188 C 822.632812 1207.023438 789.320312 1173.707031 748.222656 1173.707031 Z M 748.222656 1173.707031 " clip-rule="nonzero"/></clipPath><clipPath id="4051a9be25"><path d="M 0.8125 0.707031 L 149.632812 0.707031 L 149.632812 149.527344 L 0.8125 149.527344 Z M 0.8125 0.707031 " clip-rule="nonzero"/></clipPath><clipPath id="8f30bec4d5"><path d="M 75.222656 0.707031 C 34.128906 0.707031 0.8125 34.023438 0.8125 75.117188 C 0.8125 116.214844 34.128906 149.527344 75.222656 149.527344 C 116.320312 149.527344 149.632812 116.214844 149.632812 75.117188 C 149.632812 34.023438 116.320312 0.707031 75.222656 0.707031 Z M 75.222656 0.707031 " clip-rule="nonzero"/></clipPath><clipPath id="6a547fb151"><rect x="0" width="150" y="0" height="150"/></clipPath><clipPath id="e69decf944"><path d="M 1104.824219 395.492188 L 1253.644531 395.492188 L 1253.644531 544.3125 L 1104.824219 544.3125 Z M 1104.824219 395.492188 " clip-rule="nonzero"/></clipPath><clipPath id="0bd102f82a"><path d="M 1179.234375 395.492188 C 1138.140625 395.492188 1104.824219 428.804688 1104.824219 469.902344 C 1104.824219 510.996094 1138.140625 544.3125 1179.234375 544.3125 C 1220.332031 544.3125 1253.644531 510.996094 1253.644531 469.902344 C 1253.644531 428.804688 1220.332031 395.492188 1179.234375 395.492188 Z M 1179.234375 395.492188 " clip-rule="nonzero"/></clipPath><clipPath id="c844741943"><path d="M 0.824219 0.492188 L 149.644531 0.492188 L 149.644531 149.3125 L 0.824219 149.3125 Z M 0.824219 0.492188 " clip-rule="nonzero"/></clipPath><clipPath id="b9489fa2c9"><path d="M 75.234375 0.492188 C 34.140625 0.492188 0.824219 33.804688 0.824219 74.902344 C 0.824219 115.996094 34.140625 149.3125 75.234375 149.3125 C 116.332031 149.3125 149.644531 115.996094 149.644531 74.902344 C 149.644531 33.804688 116.332031 0.492188 75.234375 0.492188 Z M 75.234375 0.492188 " clip-rule="nonzero"/></clipPath><clipPath id="df967f580b"><rect x="0" width="150" y="0" height="150"/></clipPath><clipPath id="0530ed3605"><path d="M 1104.824219 938.460938 L 1253.644531 938.460938 L 1253.644531 1087.285156 L 1104.824219 1087.285156 Z M 1104.824219 938.460938 " clip-rule="nonzero"/></clipPath><clipPath id="76a3865bfd"><path d="M 1179.234375 938.460938 C 1138.140625 938.460938 1104.824219 971.777344 1104.824219 1012.871094 C 1104.824219 1053.96875 1138.140625 1087.285156 1179.234375 1087.285156 C 1220.332031 1087.285156 1253.644531 1053.96875 1253.644531 1012.871094 C 1253.644531 971.777344 1220.332031 938.460938 1179.234375 938.460938 Z M 1179.234375 938.460938 " clip-rule="nonzero"/></clipPath><clipPath id="c0b2bc9ac3"><path d="M 0.824219 0.460938 L 149.644531 0.460938 L 149.644531 149.285156 L 0.824219 149.285156 Z M 0.824219 0.460938 " clip-rule="nonzero"/></clipPath><clipPath id="66e0788e1a"><path d="M 75.234375 0.460938 C 34.140625 0.460938 0.824219 33.777344 0.824219 74.871094 C 0.824219 115.96875 34.140625 149.285156 75.234375 149.285156 C 116.332031 149.285156 149.644531 115.96875 149.644531 74.871094 C 149.644531 33.777344 116.332031 0.460938 75.234375 0.460938 Z M 75.234375 0.460938 " clip-rule="nonzero"/></clipPath><clipPath id="5b76b32cc2"><rect x="0" width="150" y="0" height="150"/></clipPath><clipPath id="02c1f74dba"><path d="M 243.566406 950.664062 L 392.386719 950.664062 L 392.386719 1099.484375 L 243.566406 1099.484375 Z M 243.566406 950.664062 " clip-rule="nonzero"/></clipPath><clipPath id="48e6db9e5f"><path d="M 317.976562 950.664062 C 276.878906 950.664062 243.566406 983.980469 243.566406 1025.074219 C 243.566406 1066.171875 276.878906 1099.484375 317.976562 1099.484375 C 359.070312 1099.484375 392.386719 1066.171875 392.386719 1025.074219 C 392.386719 983.980469 359.070312 950.664062 317.976562 950.664062 Z M 317.976562 950.664062 " clip-rule="nonzero"/></clipPath><clipPath id="ff6361760f"><path d="M 0.566406 0.664062 L 149.386719 0.664062 L 149.386719 149.484375 L 0.566406 149.484375 Z M 0.566406 0.664062 " clip-rule="nonzero"/></clipPath><clipPath id="7b7f411999"><path d="M 74.976562 0.664062 C 33.878906 0.664062 0.566406 33.980469 0.566406 75.074219 C 0.566406 116.171875 33.878906 149.484375 74.976562 149.484375 C 116.070312 149.484375 149.386719 116.171875 149.386719 75.074219 C 149.386719 33.980469 116.070312 0.664062 74.976562 0.664062 Z M 74.976562 0.664062 " clip-rule="nonzero"/></clipPath><clipPath id="80e1505ca4"><rect x="0" width="150" y="0" height="150"/></clipPath><clipPath id="26a104b6bc"><path d="M 244.878906 414.339844 L 393.699219 414.339844 L 393.699219 563.160156 L 244.878906 563.160156 Z M 244.878906 414.339844 " clip-rule="nonzero"/></clipPath><clipPath id="ba0bce208f"><path d="M 319.289062 414.339844 C 278.191406 414.339844 244.878906 447.652344 244.878906 488.75 C 244.878906 529.84375 278.191406 563.160156 319.289062 563.160156 C 360.382812 563.160156 393.699219 529.84375 393.699219 488.75 C 393.699219 447.652344 360.382812 414.339844 319.289062 414.339844 Z M 319.289062 414.339844 " clip-rule="nonzero"/></clipPath><clipPath id="c650d01b16"><path d="M 0.878906 0.339844 L 149.699219 0.339844 L 149.699219 149.160156 L 0.878906 149.160156 Z M 0.878906 0.339844 " clip-rule="nonzero"/></clipPath><clipPath id="56ebe5a87b"><path d="M 75.289062 0.339844 C 34.191406 0.339844 0.878906 33.652344 0.878906 74.75 C 0.878906 115.84375 34.191406 149.160156 75.289062 149.160156 C 116.382812 149.160156 149.699219 115.84375 149.699219 74.75 C 149.699219 33.652344 116.382812 0.339844 75.289062 0.339844 Z M 75.289062 0.339844 " clip-rule="nonzero"/></clipPath><clipPath id="3d7d467e7b"><rect x="0" width="150" y="0" height="150"/></clipPath></defs><path stroke-linecap="butt" transform="matrix(0.637823, -0.394565, 0.394565, 0.637823, 326.543237, 475.990715)" fill="none" stroke-linejoin="miter" d="M -0.000306271 19.998108 L 651.538181 19.998136 " stroke="#000000" stroke-width="40" stroke-opacity="1" stroke-miterlimit="4"/><path stroke-linecap="butt" transform="matrix(0.651773, 0.371069, -0.371069, 0.651773, 757.420576, 218.642203)" fill="none" stroke-linejoin="miter" d="M -0.000311373 19.997295 L 641.999163 19.99816 " stroke="#000000" stroke-width="40" stroke-opacity="1" stroke-miterlimit="4"/><path stroke-linecap="butt" transform="matrix(0, 0.75, -0.75, 0, 1194.233594, 480.775643)" fill="none" stroke-linejoin="miter" d="M 0.00226821 19.998961 L 695.877328 19.998961 " stroke="#000000" stroke-width="40" stroke-opacity="1" stroke-miterlimit="4"/><path stroke-linecap="butt" transform="matrix(-0.00923935, 0.749943, -0.749943, -0.00923935, 340.617573, 499.194249)" fill="none" stroke-linejoin="miter" d="M -0.00217423 20.00206 L 685.2061 19.998392 " stroke="#000000" stroke-width="40" stroke-opacity="1" stroke-miterlimit="4"/><path stroke-linecap="butt" transform="matrix(0.6595, 0.357154, -0.357154, 0.6595, 332.761382, 1011.888061)" fill="none" stroke-linejoin="miter" d="M -0.00127019 20.000771 L 640.79522 20.001075 " stroke="#000000" stroke-width="40" stroke-opacity="1" stroke-miterlimit="4"/><path stroke-linecap="butt" transform="matrix(0.649869, -0.374394, 0.374394, 0.649869, 742.511801, 1240.939553)" fill="none" stroke-linejoin="miter" d="M -0.0000128232 20.000879 L 643.881268 19.999048 " stroke="#000000" stroke-width="40" stroke-opacity="1" stroke-miterlimit="4"/><path stroke-linecap="butt" transform="matrix(0, 0.75, -0.75, 0, 764.996343, 231.678358)" fill="none" stroke-linejoin="miter" d="M 0.00177207 20.000335 L 568.835154 20.000335 " stroke="#000000" stroke-width="40" stroke-opacity="1" stroke-miterlimit="4"/><path stroke-linecap="butt" transform="matrix(0.64901, 0.37588, -0.37588, 0.64901, 325.493883, 475.768163)" fill="none" stroke-linejoin="miter" d="M 0.00141649 20.001699 L 551.436254 20.00183 " stroke="#000000" stroke-width="40" stroke-opacity="1" stroke-miterlimit="4"/><path stroke-linecap="butt" transform="matrix(-0.634542, 0.39982, -0.39982, -0.634542, 1193.970867, 482.592946)" fill="none" stroke-linejoin="miter" d="M 0.00222761 20.001014 L 568.786041 20.002183 " stroke="#000000" stroke-width="40" stroke-opacity="1" stroke-miterlimit="4"/><path stroke-linecap="butt" transform="matrix(-0.644103, 0.384228, -0.384228, -0.644103, 685.806646, 819.834701)" fill="none" stroke-linejoin="miter" d="M 0.00147141 20.000123 L 567.69494 19.998041 " stroke="#000000" stroke-width="40" stroke-opacity="1" stroke-miterlimit="4"/><path stroke-linecap="butt" transform="matrix(0.648293, 0.377116, -0.377116, 0.648293, 832.482682, 789.888944)" fill="none" stroke-linejoin="miter" d="M 0.00164573 20.000072 L 556.907047 19.996718 " stroke="#000000" stroke-width="40" stroke-opacity="1" stroke-miterlimit="4"/><path stroke-linecap="butt" transform="matrix(0.00314217, 0.749993, -0.749993, 0.00314217, 763.222168, 841.598404)" fill="none" stroke-linejoin="miter" d="M -0.00145214 19.999519 L 565.425433 19.998616 " stroke="#000000" stroke-width="40" stroke-opacity="1" stroke-miterlimit="4"/><g clip-path="url(#4075ab30ee)"><g clip-path="url(#ebca51b88f)"><g transform="matrix(1, 0, 0, 1, 675, 675)"><g clip-path="url(#7514070bc5)"><g clip-path="url(#613fedf4f1)"><g clip-path="url(#fb5d6e12aa)"><path fill="#de2929" d="M 0.589844 0.589844 L 149.410156 0.589844 L 149.410156 149.410156 L 0.589844 149.410156 Z M 0.589844 0.589844 " fill-opacity="1" fill-rule="nonzero"/></g></g></g></g></g></g><g clip-path="url(#f295c5ea14)"><g clip-path="url(#64521d593f)"><g transform="matrix(1, 0, 0, 1, 673, 157)"><g clip-path="url(#a8977f0d0d)"><g clip-path="url(#4a2cdc76e1)"><g clip-path="url(#14ad5652d1)"><path fill="#000000" d="M 0.8125 0.265625 L 149.632812 0.265625 L 149.632812 149.085938 L 0.8125 149.085938 Z M 0.8125 0.265625 " fill-opacity="1" fill-rule="nonzero"/></g></g></g></g></g></g><g clip-path="url(#389476dc1f)"><g clip-path="url(#4f0596e01c)"><g transform="matrix(1, 0, 0, 1, 673, 1173)"><g clip-path="url(#6a547fb151)"><g clip-path="url(#4051a9be25)"><g clip-path="url(#8f30bec4d5)"><path fill="#000000" d="M 0.8125 0.707031 L 149.632812 0.707031 L 149.632812 149.527344 L 0.8125 149.527344 Z M 0.8125 0.707031 " fill-opacity="1" fill-rule="nonzero"/></g></g></g></g></g></g><g clip-path="url(#e69decf944)"><g clip-path="url(#0bd102f82a)"><g transform="matrix(1, 0, 0, 1, 1104, 395)"><g clip-path="url(#df967f580b)"><g clip-path="url(#c844741943)"><g clip-path="url(#b9489fa2c9)"><path fill="#000000" d="M 0.824219 0.492188 L 149.644531 0.492188 L 149.644531 149.3125 L 0.824219 149.3125 Z M 0.824219 0.492188 " fill-opacity="1" fill-rule="nonzero"/></g></g></g></g></g></g><g clip-path="url(#0530ed3605)"><g clip-path="url(#76a3865bfd)"><g transform="matrix(1, 0, 0, 1, 1104, 938)"><g clip-path="url(#5b76b32cc2)"><g clip-path="url(#c0b2bc9ac3)"><g clip-path="url(#66e0788e1a)"><path fill="#000000" d="M 0.824219 0.460938 L 149.644531 0.460938 L 149.644531 149.285156 L 0.824219 149.285156 Z M 0.824219 0.460938 " fill-opacity="1" fill-rule="nonzero"/></g></g></g></g></g></g><g clip-path="url(#02c1f74dba)"><g clip-path="url(#48e6db9e5f)"><g transform="matrix(1, 0, 0, 1, 243, 950)"><g clip-path="url(#80e1505ca4)"><g clip-path="url(#ff6361760f)"><g clip-path="url(#7b7f411999)"><path fill="#000000" d="M 0.566406 0.664062 L 149.386719 0.664062 L 149.386719 149.484375 L 0.566406 149.484375 Z M 0.566406 0.664062 " fill-opacity="1" fill-rule="nonzero"/></g></g></g></g></g></g><g clip-path="url(#26a104b6bc)"><g clip-path="url(#ba0bce208f)"><g transform="matrix(1, 0, 0, 1, 244, 414)"><g clip-path="url(#3d7d467e7b)"><g clip-path="url(#c650d01b16)"><g clip-path="url(#56ebe5a87b)"><path fill="#000000" d="M 0.878906 0.339844 L 149.699219 0.339844 L 149.699219 149.160156 L 0.878906 149.160156 Z M 0.878906 0.339844 " fill-opacity="1" fill-rule="nonzero"/></g></g></g></g></g></g></svg>